<?xml version="1.0" encoding="utf-8"?><!DOCTYPE svg PUBLIC "-//W3C//DTD SVG 1.1//EN" "http://www.w3.org/Graphics/SVG/1.1/DTD/svg11.dtd"><svg xmlns="http://www.w3.org/2000/svg" xmlns:xlink="http://www.w3.org/1999/xlink"><symbol viewBox="0 0 24 24" aria-labelledby="aicon--close-desc aicon--close-title" id="icon--close" xmlns="http://www.w3.org/2000/svg"><title id="aicon--close-title">Close</title><desc id="aicon--close-desc">A cross to close something</desc><path d="M19 6.415L17.585 5 12 10.585 6.415 5 5 6.415 10.585 12 5 17.585 6.415 19 12 13.415 17.585 19 19 17.585 13.415 12z"/></symbol><symbol viewBox="0 0 31 23" id="icon--contact" xmlns="http://www.w3.org/2000/svg"><path d="M0 0v23h30.667V0H0zm2.875 20.125V4.792l12.458 9.679 12.458-9.679v15.333H2.874zm1.917-17.25h21.083L15.333 11.5 4.791 2.875z"/></symbol><symbol viewBox="0 0 16 16" id="icon--earth" xmlns="http://www.w3.org/2000/svg"><path d="M8 0a8 8 0 1 0 0 16A8 8 0 0 0 8 0zm0 15a6.96 6.96 0 0 1-2.769-.57l3.643-4.098A.503.503 0 0 0 9 10V8.5a.5.5 0 0 0-.5-.5C6.735 8 4.872 6.165 4.854 6.146A.5.5 0 0 0 4.5 6h-2a.5.5 0 0 0-.5.5v3a.5.5 0 0 0 .276.447L4 10.809v2.936A6.992 6.992 0 0 1 1 8a6.97 6.97 0 0 1 .674-3H3.5c.133 0 .26-.053.354-.146l2-2A.5.5 0 0 0 6 2.5V1.29A6.989 6.989 0 0 1 8 1c1.1 0 2.141.254 3.067.706A2.98 2.98 0 0 0 10 3.999c0 .801.312 1.555.879 2.121a2.994 2.994 0 0 0 2.268.875c.216.809.605 2.917-.131 5.818a.466.466 0 0 0-.013.082 6.979 6.979 0 0 1-5.002 2.104z"/></symbol><symbol viewBox="0 0 42 42" id="icon--github" xmlns="http://www.w3.org/2000/svg"><path d="M21 0C9.402 0 0 9.402 0 21s9.402 21 21 21 21-9.402 21-21S32.598 0 21 0zm12.471 33.471a17.576 17.576 0 0 1-7.231 4.375v-3.147c0-1.654-.567-2.871-1.702-3.65.711-.068 1.364-.164 1.958-.287s1.224-.301 1.887-.533 1.258-.509 1.784-.831 1.032-.738 1.518-1.251.892-1.094 1.22-1.743.588-1.429.779-2.338.287-1.911.287-3.004c0-2.119-.69-3.924-2.071-5.414.629-1.641.561-3.425-.205-5.353l-.513-.062c-.355-.041-.995.109-1.917.451s-1.958.902-3.107 1.682a18.872 18.872 0 0 0-5.065-.677c-1.764 0-3.445.226-5.045.677-.725-.492-1.412-.899-2.061-1.22s-1.169-.54-1.559-.656-.752-.188-1.087-.215-.55-.034-.646-.021-.164.027-.205.041c-.766 1.941-.834 3.726-.205 5.353-1.381 1.49-2.071 3.295-2.071 5.414 0 1.094.096 2.095.287 3.004s.451 1.688.779 2.338.735 1.23 1.22 1.743.991.93 1.518 1.251 1.121.598 1.784.831 1.292.41 1.887.533 1.248.219 1.958.287c-1.121.766-1.682 1.982-1.682 3.65v3.209a17.576 17.576 0 0 1-7.436-4.437A17.576 17.576 0 0 1 3.363 21 17.576 17.576 0 0 1 8.529 8.529 17.576 17.576 0 0 1 21 3.363a17.576 17.576 0 0 1 12.471 5.166A17.576 17.576 0 0 1 38.637 21a17.576 17.576 0 0 1-5.166 12.471z"/></symbol><symbol viewBox="0 0 16 16" id="icon--github-" xmlns="http://www.w3.org/2000/svg"><path d="M8 .198a8 8 0 0 0-2.529 15.591c.4.074.547-.174.547-.385 0-.191-.008-.821-.011-1.489-2.226.484-2.695-.944-2.695-.944-.364-.925-.888-1.171-.888-1.171-.726-.497.055-.486.055-.486.803.056 1.226.824 1.226.824.714 1.223 1.872.869 2.328.665.072-.517.279-.87.508-1.07-1.777-.202-3.645-.888-3.645-3.954 0-.873.313-1.587.824-2.147-.083-.202-.357-1.015.077-2.117 0 0 .672-.215 2.201.82A7.672 7.672 0 0 1 8 4.066c.68.003 1.365.092 2.004.269 1.527-1.035 2.198-.82 2.198-.82.435 1.102.162 1.916.079 2.117.513.56.823 1.274.823 2.147 0 3.073-1.872 3.749-3.653 3.947.287.248.543.735.543 1.481 0 1.07-.009 1.932-.009 2.195 0 .213.144.462.55.384A8 8 0 0 0 8.001.196z"/></symbol><symbol viewBox="0 0 16 16" id="icon--location" xmlns="http://www.w3.org/2000/svg"><path d="M8 0a5 5 0 0 0-5 5c0 5 5 11 5 11s5-6 5-11a5 5 0 0 0-5-5zm0 8a3 3 0 1 1 0-6 3 3 0 0 1 0 6z"/></symbol><symbol viewBox="0 0 16 16" id="icon--mail" xmlns="http://www.w3.org/2000/svg"><path d="M8 0a8 8 0 1 0 0 16A8 8 0 0 0 8 0zM4 4h8c.143 0 .281.031.409.088L8 9.231 3.591 4.088A.982.982 0 0 1 4 4zm-1 7V5l.002-.063 2.932 3.421-2.9 2.9A.967.967 0 0 1 3 11zm9 1H4c-.088 0-.175-.012-.258-.034L6.588 9.12l1.413 1.648L9.414 9.12l2.846 2.846a.967.967 0 0 1-.258.034zm1-1c0 .088-.012.175-.034.258l-2.9-2.9 2.932-3.421L13 5v6z"/></symbol><symbol viewBox="0 0 24 24" aria-labelledby="hicon--menu-desc hicon--menu-title" id="icon--menu" xmlns="http://www.w3.org/2000/svg"><title id="hicon--menu-title">Menu</title><desc id="hicon--menu-desc">A burger-menu icon for opening/closing the navigation</desc><path d="M3 18h18v-2H3v2zm0-5h18v-2H3v2zm0-7v2h18V6H3z"/></symbol><symbol viewBox="16 6 12 20" id="icon--next" xmlns="http://www.w3.org/2000/svg"><path d="M19 6l-3 3 7 7-7 7 3 3 9-10-9-10z"/></symbol><symbol viewBox="0 0 284 306" fill-rule="evenodd" id="icon--offline" xmlns="http://www.w3.org/2000/svg"><path d="M269.4 0v14.3h14.2V80H213v11.7h42.5v16.5h-56.3v26h28.2v30.3h-16.6v-13.8h-11.6V200H185v21h-14v14h-14v54h14v16.2h-30.3v-42h-14.3V249h-11.6v14.4h-14.3v13.8H86.7v12h13.8v16.2H70V249H56.4v-13.8H42V221H28v-14H14v-14.3H0V106h16v28h14.4v14h13.8v14.3h26v-13.8h14.2V134h21v-14h21v-14h14.3V14.3h14V0h114.7zm-84 20.6h-17v17h17v-17z"/></symbol><symbol viewBox="0 6 12 20" id="icon--prev" xmlns="http://www.w3.org/2000/svg"><path d="M9 6L0 16l9 10 3-3-7-7 7-7-3-3z"/></symbol><symbol viewBox="0 0 42 42" id="icon--processwire" xmlns="http://www.w3.org/2000/svg"><path d="M20.99 0C9.39 0 0 9.4 0 21v10.45l5.47 4.92V21c0-8.58 6.96-15.55 15.54-15.55S36.55 12.42 36.55 21c0 8.58-6.96 15.55-15.54 15.55h-2.93v-7.77h2.93c4.4 0 7.98-3.57 7.98-7.99s-3.57-7.99-7.98-7.99c-4.4 0-7.99 3.57-7.99 7.99V42h7.99C32.61 42 42 32.6 42 21S32.58 0 20.99 0zm0 17.32c1.91 0 3.47 1.56 3.47 3.47 0 1.91-1.55 3.47-3.47 3.47-1.91 0-3.47-1.55-3.47-3.47.01-1.91 1.56-3.47 3.47-3.47z"/></symbol><symbol viewBox="0 0 24 32" id="icon--reply" xmlns="http://www.w3.org/2000/svg"><path d="M12 5L0 14l12 9v-6c3.469 0 10.281 1.906 12 8.75 0-9.094-6.125-14.094-12-14.75V5z"/></symbol><symbol viewBox="0 0 28 32" id="icon--retweet" xmlns="http://www.w3.org/2000/svg"><path d="M19.973 23.977C18.305 25.23 16.25 26 14 26 8.476 26 4 21.523 4 16c0-1.424.306-2.774.844-4H2V8.892C.76 10.983 0 13.394 0 16c0 7.732 6.268 14 14 14 3.355 0 6.391-1.229 8.805-3.195L24 28v-6h-6l1.973 1.977zM28 16c0-7.732-6.268-14-14-14-3.356 0-6.392 1.228-8.802 3.198L4 4v6h6L8.026 8.026C9.696 6.771 11.75 6 14 6c5.523 0 10 4.476 10 10a9.911 9.911 0 0 1-.844 4H26v3.109c1.24-2.091 2-4.5 2-7.109z"/></symbol><symbol viewBox="0 0 28 32" id="icon--star" xmlns="http://www.w3.org/2000/svg"><path d="M28 12l-9.797-1.274L14 2l-4.204 8.726L0 12l7.202 6.527-1.858 9.471L14 23.348l8.658 4.65-1.861-9.471L28 12z"/></symbol><symbol viewBox="0 0 16 16" id="icon--twitter" xmlns="http://www.w3.org/2000/svg"><path d="M16 3.538a6.461 6.461 0 0 1-1.884.516 3.301 3.301 0 0 0 1.444-1.816 6.607 6.607 0 0 1-2.084.797 3.28 3.28 0 0 0-2.397-1.034 3.28 3.28 0 0 0-3.197 4.028 9.321 9.321 0 0 1-6.766-3.431 3.284 3.284 0 0 0 1.015 4.381A3.301 3.301 0 0 1 .643 6.57v.041A3.283 3.283 0 0 0 3.277 9.83a3.291 3.291 0 0 1-1.485.057 3.293 3.293 0 0 0 3.066 2.281 6.586 6.586 0 0 1-4.862 1.359 9.286 9.286 0 0 0 5.034 1.475c6.037 0 9.341-5.003 9.341-9.341 0-.144-.003-.284-.009-.425a6.59 6.59 0 0 0 1.637-1.697z"/></symbol><symbol viewBox="0 0 42 42" id="icon--twitter2" xmlns="http://www.w3.org/2000/svg"><path d="M21 0C9.402 0 0 9.402 0 21s9.402 21 21 21 21-9.402 21-21S32.598 0 21 0zm12.069 14.81c.012.267.018.535.018.805 0 8.229-6.263 17.717-17.717 17.717a17.62 17.62 0 0 1-9.545-2.798c.487.058.983.087 1.485.087 2.917 0 5.602-.996 7.733-2.666a6.234 6.234 0 0 1-5.817-4.324 6.254 6.254 0 0 0 2.813-.106 6.23 6.23 0 0 1-4.995-6.106l.001-.078c.84.466 1.8.746 2.82.779a6.225 6.225 0 0 1-2.77-5.183c0-1.141.307-2.211.843-3.13a17.681 17.681 0 0 0 12.835 6.506 6.26 6.26 0 0 1-.161-1.419 6.227 6.227 0 0 1 6.227-6.227c1.791 0 3.409.756 4.545 1.966a12.453 12.453 0 0 0 3.954-1.511 6.246 6.246 0 0 1-2.738 3.445c1.26-.15 2.46-.485 3.576-.98a12.65 12.65 0 0 1-3.107 3.224z"/></symbol></svg>